<?xml version="1.0" encoding="UTF-8"?> <svg xmlns="http://www.w3.org/2000/svg" xmlns:xlink="http://www.w3.org/1999/xlink" version="1.1" id="Livello_1" x="0px" y="0px" viewBox="0 0 42 42" style="enable-background:new 0 0 42 42;" xml:space="preserve"> <style type="text/css"> .st0{fill:#D2AF5A;} </style> <g> <path class="st0" d="M13.8,17.8c0.3,0,0.6-0.3,0.6-0.6V15c0-0.9,0.8-1.7,1.7-1.7s1.7,0.8,1.7,1.7c0,0.3,0.3,0.6,0.6,0.6 c0.3,0,0.6-0.3,0.6-0.6v-2.8h-5.7v5.1C13.3,17.6,13.5,17.8,13.8,17.8z"></path> <rect x="11" y="12.2" class="st0" width="1.1" height="1.1"></rect> <path class="st0" d="M25.7,26.9v1.1h1.1v-1.2c-0.2,0-0.4,0-0.6,0H25.7z"></path> <path class="st0" d="M13.8,20.1h2.3c0.7,0,1.4,0.5,1.6,1.1h2.9c0.9,0,1.7,0.8,1.7,1.7v0.6c0.6,0.1,1.2,0.4,1.6,0.8l1.4,1.4h0.9 c0,0,0,0,0,0c2.2,0,4-1.8,4-4v-7.4H20.1V15c0,0.9-0.8,1.7-1.7,1.7c-0.9,0-1.7-0.8-1.7-1.7c0-0.3-0.3-0.6-0.6-0.6s-0.6,0.3-0.6,0.6 v2.3c0,0.9-0.8,1.7-1.7,1.7c-0.9,0-1.7-0.8-1.7-1.7v-2.8H11v6.8h1.2C12.5,20.6,13.1,20.1,13.8,20.1z M26.3,23.5 c0.9,0,1.7-0.8,1.7-1.7v-4.5c0-0.3,0.3-0.6,0.6-0.6c0.3,0,0.6,0.3,0.6,0.6v4.5c0,1.6-1.3,2.8-2.8,2.8c-0.3,0-0.6-0.3-0.6-0.6 S26,23.5,26.3,23.5z"></path> <path class="st0" d="M35.9,16.7h-4.5v3.4H32C33.9,20.1,35.6,18.7,35.9,16.7z"></path> <rect x="20.1" y="12.2" class="st0" width="10.2" height="1.1"></rect> <path class="st0" d="M38.2,16.1c0-0.9-0.8-1.7-1.7-1.7h-5.1v1.1h5.1c0.3,0,0.6,0.3,0.6,0.6c0,2.8-2.3,5.1-5.1,5.1h-0.6v0.6 c0,0.2,0,0.4,0,0.6H32C35.4,22.4,38.2,19.6,38.2,16.1z"></path> <path class="st0" d="M22.3,24.7v3.4h2.3v-1.5l-1.4-1.4C22.9,24.9,22.7,24.8,22.3,24.7z"></path> <path class="st0" d="M7,30.3h28.3c0.7,0,1.4-0.5,1.6-1.1H5.4C5.7,29.9,6.3,30.3,7,30.3z"></path> <path class="st0" d="M21,0C9.4,0,0,9.4,0,21s9.4,21,21,21s21-9.4,21-21S32.6,0,21,0z M35.4,31.5H7c-1.6,0-2.8-1.3-2.8-2.8v-2.3 c0-0.2,0.1-0.3,0.2-0.4L6,24.3c0.4-0.4,1-0.7,1.6-0.8V23c0-0.9,0.8-1.7,1.7-1.7h0.6v-9.6c0-0.3,0.3-0.6,0.6-0.6h20.4 c0.3,0,0.6,0.3,0.6,0.6v1.7h5.1c1.6,0,2.8,1.3,2.8,2.8c0,4.1-3.3,7.4-7.4,7.4h-0.9c-0.5,1.5-1.7,2.6-3.1,3.1v1.4h9.6 c0.3,0,0.6,0.3,0.6,0.6C38.2,30.2,36.9,31.5,35.4,31.5z"></path> <path class="st0" d="M7.6,24.7c-0.3,0.1-0.6,0.2-0.8,0.5l-1.4,1.4v1.5h2.3V24.7z"></path> <path class="st0" d="M17.8,22.4v5.7h3.4V23c0-0.3-0.3-0.6-0.6-0.6H17.8z"></path> <path class="st0" d="M12.1,22.4H9.3c-0.3,0-0.6,0.3-0.6,0.6v5.1h3.4V22.4z"></path> <path class="st0" d="M13.8,21.2c-0.3,0-0.6,0.3-0.6,0.6v6.2h3.4v-6.2c0-0.3-0.3-0.6-0.6-0.6H13.8z"></path> </g> </svg> 